<svg xmlns="http://www.w3.org/2000/svg" viewBox="0 0 400 400">
  
<g transform="matrix(2,0,0,2,0,0)"><g>
    <path d="M124.029,111.094H109.555a55.81,55.81,0,0,0,11.493-1.888,5.983,5.983,0,0,0,1.649-.724A19.115,19.115,0,0,1,124.029,111.094Z" style="fill: #FFD0C7"></path>
    <path d="M43.591,110.858c1.426-6.481,10.552-5.71,10.643-5.7a.188.188,0,0,1-.035.374c-.089-.008-8.886-.748-10.241,5.408A.188.188,0,0,1,43.591,110.858Z" style="fill: #7c3aed"></path>
    <path d="M51.47,100.79c-1.857-.734-.507,1.055,1.031,2.457a21.415,21.415,0,0,0-3.351-.134c-.3.054-.626.47,1.221.989a35.351,35.351,0,0,1,7.119,2.722l.27-2.814C54.334,102.582,52.673,101.265,51.47,100.79Z" style="fill: #FFD0C7"></path>
    <path d="M57.342,108.383l-.182,1.892A10.862,10.862,0,0,0,56,110.183c-3.282-.057-2.122-.86-.983-1.184C55.6,108.832,56.576,108.636,57.342,108.383Z" style="fill: #FFD0C7"></path>
    <path d="M57.832,103.837c-4.451-1.856-6.725-4.05-7.362-3.246-.414.519,1.009,1.932,1.484,2.4a12.288,12.288,0,0,0-2.838-.061.431.431,0,0,0-.389.374c-.047.958,3.169,1.04,7.943,3.255.214.131.453.274.727.431a.188.188,0,0,0,.187-.327,15.787,15.787,0,0,1-1.863-1.214,34.79,34.79,0,0,1-3.092-2.337c-.843-.766-1.93-1.977-1.869-2.28.081-.05.566.029,1.942.808a42.131,42.131,0,0,0,4.986,2.547A.188.188,0,0,0,57.832,103.837Zm-8.733-.5a.159.159,0,0,1,.084-.037,14.419,14.419,0,0,1,3.231.124,29.047,29.047,0,0,0,2.788,2.1,33.452,33.452,0,0,0-4.78-1.6C49.219,103.583,49.11,103.335,49.1,103.335Z" style="fill: #7c3aed"></path>
    <path d="M57.16,110.463a11.082,11.082,0,0,0-1.166-.092c-1.987-.034-2.293-.333-2.331-.62-.066-.5.979-.841,1.3-.933.692-.2,1.53-.353,2.32-.614a.188.188,0,0,1,.118.358c-.8.262-1.721.444-2.335.618-.651.185-1.011.439-1.03.529,0,0,.171.255,1.965.286a10.768,10.768,0,0,1,1.183.094A.188.188,0,0,1,57.16,110.463Z" style="fill: #7c3aed"></path>
    <path d="M125.082,114.4H77.634L60.193,150.625a23.1,23.1,0,0,0,2.61,1.988l-2.61,5.531a22.9,22.9,0,0,0,11.5.163l.962-2.258a26.082,26.082,0,0,0,2.9.125l6.8-12.406-2.032,10.275a25.679,25.679,0,0,0,2.853,1.206l-.781,3.058a19.011,19.011,0,0,0,10.474,0l.312-1.441q1.388-.006,2.792-.123l7.521-30.454,2.271.347,15.841-1.275.831-.688C125.8,121.609,125.862,117.622,125.082,114.4Z" style="fill: #FFD0C7"></path>
    <path d="M100.658,111.09c-1.014.114-1.833-1.132-3.25-2.317-1.032-.86-1.448-1.451-2.223-.91-4.228,2.955-5.367,2.566-4.746,1.895.976-1.047,1.611-1.836,2.19-2.57-5.041,2.1-5.82,1.105-4.97.652,1.342-.712,2.883-1.484,4.193-2.237-5.733,1.658-7.408.571-6.47.271,1.848-.59,3.84-1.148,5.674-1.781-5.082.68-4.753-.141-2.96-.633,1.987-.543,6.1-1.743,6.47-1.743a4.831,4.831,0,0,1,1.151.238c-1.522-3.489-.527-3.7-.01-2.811a17.193,17.193,0,0,0,2.615,3.331,5.211,5.211,0,0,0,.777.7l2.308.857.34,1.76C102.111,108.591,101.627,110.981,100.658,111.09Z" style="fill: #FFD0C7"></path>
    <path d="M109.7,72.4c-.36.162-1.485,3.808-.369,5.776-1.837.595-3.87.948-5.471-.146a4.853,4.853,0,0,0,1.061-1.73l1.817-1.7a6.064,6.064,0,0,1-1.519.234c-4.937.072-.227-7.354-.135-7.354,2.428-3.394,4.065.22,3.909,2.341.031.423.234.539.917.038C111.305,68.839,112.316,71.226,109.7,72.4Z" style="fill: #FFD0C7"></path>
    <path d="M61.363,88.273A4.086,4.086,0,1,1,65.13,84.2,3.933,3.933,0,0,1,61.363,88.273Zm0-7.771a3.711,3.711,0,1,0,3.391,3.7A3.558,3.558,0,0,0,61.363,80.5Z" style="fill: #7c3aed"></path>
    <path d="M61.672,79.47c-.152,0-.337-.01-.322-.206a2.746,2.746,0,0,1,3.08-2.653.188.188,0,0,1,.174.2,3.241,3.241,0,0,1-.953,2.008A3.149,3.149,0,0,1,61.672,79.47ZM64.2,76.985a2.322,2.322,0,0,0-2.446,2.107A2.322,2.322,0,0,0,64.2,76.985Z" style="fill: #7c3aed"></path>
    <path d="M68.625,51.57h-11.3a.188.188,0,0,1-.188-.188v-11.3a.188.188,0,0,1,.188-.188h11.3a.188.188,0,0,1,.188.188v11.3A.188.188,0,0,1,68.625,51.57Zm-11.108-.376H68.436V40.274H57.517Z" style="fill: #7c3aed"></path>
    <path d="M66.705,33.42a1.207,1.207,0,0,0-.618,2.242l-3.28,6.917a.188.188,0,0,0,.34.161l3.29-6.939a1.206,1.206,0,1,0,.268-2.381Z" style="fill: #7c3aed"></path>
    <path d="M30.448,132.644H26.322v-4.133a.186.186,0,1,0-.371,0v4.127H21.818a.185.185,0,1,0,0,.37h4.127v4.133a.185.185,0,1,0,.37,0v-4.127h4.134A.185.185,0,1,0,30.448,132.644Z" style="fill: #7c3aed"></path>
    <path d="M164.87,127.8a2.7,2.7,0,1,1,4.759,1.5A2.7,2.7,0,0,1,164.87,127.8Zm2.692-2.56a2.324,2.324,0,1,0,1.778,3.818A2.327,2.327,0,0,0,167.562,125.241Z" style="fill: #7c3aed"></path>
    <path d="M107.9,83.594a.681.681,0,0,0-1.361,0A.681.681,0,0,0,107.9,83.594Z" style="fill: #7c3aed"></path>
    <path d="M101.338,89.906a.68.68,0,0,0-1.36,0A.68.68,0,0,0,101.338,89.906Z" style="fill: #7c3aed"></path>
    <path d="M106.441,97.059a.681.681,0,0,0-1.362,0A.681.681,0,0,0,106.441,97.059Z" style="fill: #7c3aed"></path>
    <path d="M194.838,166H94.341a21.637,21.637,0,0,0-1.275-7.7l.285-1.245a21.926,21.926,0,0,0,2.742-.162c.08-.078-.51,2.22,7.544-30.387l2.143.322,3.761-.3a.188.188,0,0,0,.048-.365l-5.556-1.96a.19.19,0,0,0-.247.132c-.12.488-7.9,32-7.962,32.238a34.306,34.306,0,0,1-5.062.031l6.935-32.95a3.555,3.555,0,0,1,4.248-2.742c10.252,2.27,19.375.837,18.3-9.623H123.9c2.146,5.131,2.11,10.5-2.328,13.862l-.02.017.671-.054c4.248-3.535,4.144-8.977,1.975-14.085a20.292,20.292,0,0,0-1.249-2.484,6.082,6.082,0,0,0,2.6-6.113c-.969-5.506-3.414-15.565-6.432-18.344a28.086,28.086,0,0,0-8.36-4.931,2.425,2.425,0,0,1-1.547-1.755c-.027-.484-.157-5.395,5.5-6.432a1.613,1.613,0,0,0,.627-2.856,1.783,1.783,0,0,0-1.066-.358,1.671,1.671,0,0,0-1.961-2.283,1.683,1.683,0,0,0-2.144-1.93,1.681,1.681,0,0,0-3.067-1.157,29.3,29.3,0,0,1-2.717,5.841c-1.69,2.96-2.792,6.7.626,6.8a4.9,4.9,0,0,1-3.841,4.341c-6.2,1.754-10.36,14.143-13.925,19.625L67.031,102.27a.188.188,0,0,0,.061.372l1.942-.316a11.794,11.794,0,0,1,1.616,8.734.188.188,0,0,0,.37.067,12.318,12.318,0,0,0-1.583-8.866c17.078-2.775,17.89-2.89,17.991-2.927.378-.144,3.136-5.653,3.309-6,2.781-5.524,6.243-12.4,10.54-13.615a6.348,6.348,0,0,0,2.057-.979l-.7,1.569a.189.189,0,0,0,.257.245l2.845-1.441c-2.045,5.4-3.065,12.429-3.118,21.445-1.949.129-3.323.186-3.222.189-.365.006-.848.254-1.165,1.343-.22-.232-.446-.48-.674-.742a28.935,28.935,0,0,1-.178-12.089.188.188,0,0,0-.369-.074,29.639,29.639,0,0,0,.014,11.522A14.153,14.153,0,0,1,95.87,99.05c-.252-.433-.6-.631-.87-.5-.482.244-.341,1.349.395,3.124-1.123-.294-.48-.278-7.349,1.6-.638.175-1.386.467-1.327.862.042.28.429.405,1.278.405,1.678,0,2.395-.46-2.671,1.15-1.051.333-.272,1.751,5.084.482-.492.263-2.4,1.262-2.84,1.5-.89.473-.67,1.969,4.466-.043-.468.579-1.006,1.216-1.734,2-.33.356-.181.584-.127.646.439.5,2.4-.361,5.117-2.259.509-.356.78-.157,1.549.516a6.614,6.614,0,0,1-6.7,2.377.188.188,0,0,0-.065.371,7,7,0,0,0,7.047-2.5c1.549,1.33,2.405,2.5,3.4,2.5l19.333,0c.354,3.358-.346,5.914-2.089,7.61-3.738,3.638-11.471,2.593-15.748,1.646a3.932,3.932,0,0,0-4.7,3.032l-6.945,33a27.149,27.149,0,0,1-9.847-2.632c11.9-60.176,2.782-14.078,6.373-32.237a9.7,9.7,0,0,1,7.717-7.676.188.188,0,0,0-.071-.37,10.075,10.075,0,0,0-8.015,7.972l-1.361,6.882L69.232,155.252a21.494,21.494,0,0,1-8.807-4.676L77.8,114.484a.188.188,0,0,0-.339-.163c-18.287,38.072-17.533,36.256-17.416,36.422a21.975,21.975,0,0,0,2.527,1.944l-2.516,5.3A24.838,24.838,0,0,0,48.7,166H5.214c-.139,0-.478.5.041.529,2.346.15,23-.06,189.581-.06C195.085,166.466,195.087,166,194.838,166Zm-72.2-57.257a19.979,19.979,0,0,1,1.107,2.166H120.2q-.073-.6-.192-1.236A8.761,8.761,0,0,0,122.635,108.74ZM109.108,78.446l-.271,2.222-2.212-1.752A10.02,10.02,0,0,0,109.108,78.446Zm-5.785-4.684c-.682-1.5.839-4.437,1.555-5.633.506-.845,1.464-2.1,2.407-1.809.877.274,1.365,1.666,1.489,2.6.1.782-.052,1,.138,1.288.2.3.579.15.887-.045.244-.154.489-.409.855-.356.71.1.823,1.523-.9,2.365l-.128.06c-.538.244-1.508,3.837-.561,5.835-1.6.5-3.479.8-4.912-.073a5.031,5.031,0,0,0,.932-1.584c1.965-1.841,1.87-1.711,1.834-1.867-.13-.319-.4.073-1.664.1C104.447,74.645,103.663,74.507,103.323,73.762Zm.619,4.547a4.127,4.127,0,0,0,1.481.542l-2.232,1.131Zm2.224.723c2.9,2.3,2.717,2.179,2.817,2.179a.188.188,0,0,0,.187-.165l.287-2.353a2.658,2.658,0,0,0,1.178.811,27.665,27.665,0,0,1,8.231,4.854c2.563,2.359,5.071,11.053,6.316,18.132A5.736,5.736,0,0,1,121,109.024a55.9,55.9,0,0,1-11.45,1.882h-3.715c.784-4.218.39-7.618-1.175-10.112a83.575,83.575,0,0,0,11.491-1.532.188.188,0,0,0-.08-.368c-.662.145-1.321.276-1.966.392a53.821,53.821,0,0,0-1.471-8.419l-.012-.031a.187.187,0,0,0-.345.011c-.03.1-.013-.412-.013,8.748-2.973.451-6.284.741-9.273.942C103.044,91.458,104.084,84.417,106.166,79.032Zm-1.934,21.794c1.611,2.439,2.021,5.829,1.219,10.08H101.3c.669-.8.923-2.854.629-5.152l-.343-1.773a6.016,6.016,0,0,0-1.442-2.892C101.606,101.007,102.964,100.92,104.232,100.826ZM95.17,98.889c.031-.016.2.058.375.35a18.077,18.077,0,0,0,2.665,3.383c-.72-.273-1.608-.591-2.351-.813C94.908,99.607,95.076,98.937,95.17,98.889Zm2.184,9.593a6.288,6.288,0,0,0,.669-1.142.188.188,0,0,0-.349-.141,5.839,5.839,0,0,1-.6,1.037c-.735-.644-1.224-1.065-2-.526-3.3,2.3-4.484,2.413-4.606,2.346.011-.168.163-.05,2.941-3.554a.188.188,0,0,0-.294-.235l-.6.766c-3.75,1.553-4.884,1.29-4.963,1.148.007-.111.425-.3,1.536-.88,1.237-.648,2.78-1.453,3.877-2.139a.188.188,0,0,0-.2-.319c-.3.188-.633.384-.987.585-4.438,1.282-6.142.853-6.42.66.026-.014,5.975-1.812,7.3-2.395a.188.188,0,0,0-.151-.344c-.37.162-.892.354-1.493.56a14.784,14.784,0,0,1-3.889.167,2.869,2.869,0,0,1,1.021-.435c1.8-.491,6.08-1.732,6.42-1.736.957,0,3.937,1.28,6.677,2.265l.318,1.643c.278,2.177.046,4.18-.563,4.872a.563.563,0,0,1-.43.222C99.764,110.949,98.969,109.858,97.354,108.482Zm16.21,2.424a57.943,57.943,0,0,0,6.076-1.146c.073.392.132.774.18,1.146Zm-40.71,53.059c.123-.1-1.52-.065,21.061-.065a11.656,11.656,0,0,1,.059,1.993c-3.37.006-18.116.1-23.522.1C71.186,165.333,72.031,164.616,72.854,163.965ZM62.893,152.9a21.488,21.488,0,0,0,6.351,2.748.156.156,0,0,0,.06.015,23.059,23.059,0,0,0,3.086.551l-.835,1.942a22.469,22.469,0,0,1-11.094-.133Zm20.4,2.6a29.6,29.6,0,0,0,9.671,1.561l-.253,1.105a18.888,18.888,0,0,1-10.088.014Zm13.005.72Zm0,0Zm-.013.051Zm0,.015Zm-.349-.158ZM80.2,154.184a23.587,23.587,0,0,0,2.737,1.18l-.7,2.793a31.759,31.759,0,0,0-9.186,5.175,23.931,23.931,0,0,0-1.159-5.019l.888-2.064a25.032,25.032,0,0,0,2.849.1c.119-.052-.017.11,6.325-11.526C80.02,154.611,80.073,154.069,80.2,154.184Zm4.762-24.577L82.2,143.585l-6.757,12.4a24.311,24.311,0,0,1-5.829-.639ZM51.125,163.9H72.332c-.646.521-1.865,1.535-2.441,2.1H49.18A23.427,23.427,0,0,1,51.125,163.9Z" style="fill: #7c3aed"></path>
    <path d="M134.295,79.938l-24.251-1.19a2.363,2.363,0,0,0,.75.413l23.482,1.153a3.12,3.12,0,0,1,2.9,3.744l-3.4,16.479-8.712-.647c.027.129.053.257.079.383l8.556.635-4.965,24.045-5.857-.436q-.307.3-.65.59l-16.454,1.339-2.045-.312c-.031.123-.061.245-.091.367l1.94.3v3.854l-2.884-.326-.092.369,2.966.334-2.259,35.144a.188.188,0,0,0,.375.024l2.259-35.137c.141,0-1.7.078,20.6-1.732a2.29,2.29,0,0,0,1.4-.638l5.351,37.522a.188.188,0,0,0,.373-.054l-5.4-37.859c.346-.525-.333,2.335,9.281-44.164A3.5,3.5,0,0,0,134.295,79.938ZM128.2,127.52a1.916,1.916,0,0,1-1.689,1.432s-20.514,1.731-20.561,1.731v-3.874s20.353-1.655,20.4-1.655l2.3.17Z" style="fill: #7c3aed"></path>
    <path d="M96.292,156.238l0,.013Z" style="fill: #7c3aed"></path>
    <path d="M175.191,110.906h-9.839v-1.88a.475.475,0,0,0-.472-.474h-7.623a1.414,1.414,0,0,0-.685-2.425l11.593-27.012a1.856,1.856,0,0,0-.04-3.706L151.183,56.4a1.414,1.414,0,0,0-2.37-1.542l-2.744-1.371,3.721-3.753a1.959,1.959,0,1,0-2.782-2.759l-3.963,4-9.383,2.557a1.166,1.166,0,0,0-.514,1.954l2.549,2.527a2.481,2.481,0,0,0,3.458,3.428l2.3,2.282a1.165,1.165,0,0,0,1.948-.531l2.471-9.379,2.773,1.384a1.416,1.416,0,0,0,2.288,1.495l16.718,18.754a1.857,1.857,0,0,0,.107,3.653l-11.59,27.006a1.415,1.415,0,0,0-.833,2.446h-7.623a.475.475,0,0,0-.472.474v1.88h-2.475a1.089,1.089,0,0,0,.27-.719V108.04a2.9,2.9,0,0,0,0-5.786v-2.147a1.1,1.1,0,0,0-1.1-1.1h-6.831a1.1,1.1,0,0,0-1.1,1.1v10.081a1.087,1.087,0,0,0,.27.718H72.937a1.243,1.243,0,0,0-1.166-.819H69.312a1.419,1.419,0,0,1-1.4-1.256l-1.03-9.943H80.435a3.5,3.5,0,0,0,3.5-3.5V71.423a3.5,3.5,0,0,0-3.5-3.5H46.4a3.5,3.5,0,0,0-3.5,3.5v23.97a3.5,3.5,0,0,0,3.5,3.5H58.063L56.91,110.906H27.787a1.842,1.842,0,0,0,0,3.684H47.748c-9.942,55.048-9.287,51.325-9.287,51.6a.188.188,0,0,0,.188.188h3.333a.188.188,0,0,0,.185-.155L51.49,114.59h100l9.324,51.628a.188.188,0,0,0,.185.155h3.332a.188.188,0,0,0,.188-.188c0-.269.626,3.29-9.286-51.595h19.961a1.842,1.842,0,0,0,0-3.684Zm-38.16-49.544a2.1,2.1,0,0,1-1.061-3.077l2.912,2.886A2.1,2.1,0,0,1,137.031,61.362Zm8.465-7.939L143.311,51.4a.189.189,0,0,1,.255-.278l2.185,2.024A.188.188,0,0,1,145.5,53.423Zm4.5,3.257a1.039,1.039,0,1,1,1.038-1.038A1.04,1.04,0,0,1,149.992,56.68Zm16.566,20.584a1.481,1.481,0,1,1,1.482,1.48A1.482,1.482,0,0,1,166.558,77.264Zm-21.519,25.367a2.523,2.523,0,0,1,0,5.032ZM46.4,98.512A3.123,3.123,0,0,1,43.279,95.4V71.423A3.122,3.122,0,0,1,46.4,68.3H79.188a3.123,3.123,0,0,1,3.119,3.119V95.394a3.123,3.123,0,0,1-3.119,3.118Zm10.89,12.394,1.153-12.018h6.82l1.315,12.018Zm97.972-3.392a1.038,1.038,0,1,1,1.038,1.038A1.04,1.04,0,0,1,155.26,107.514Zm9.716,3.392H147.62v-1.88c0-.152-1.039-.1,17.259-.1a.1.1,0,0,1,.1.1Z" style="fill: #7c3aed"></path>
  </g></g></svg>